<svg width="194" height="46" viewBox="0 0 194 46" fill="none" xmlns="http://www.w3.org/2000/svg">
<path d="M75.4763 26.3364V23.6209H65.6736V18.4073H73.7927V15.6919H65.6736V10.8585H75.4763V8.14304H62.6052V26.3364H75.4763ZM84.3264 26.3364L89.0512 13.1123H85.7384L83.5118 20.3081L82.4528 24.3541L81.3666 20.3081L79.1128 13.1123H75.7457L80.4434 26.3364H84.3264ZM95.6397 26.6079C99.4956 26.6079 102.102 23.8382 102.102 19.7379C102.102 15.6104 99.4956 12.8407 95.6397 12.8407C91.8382 12.8407 89.2313 15.6104 89.2313 19.7379C89.2313 23.8382 91.8382 26.6079 95.6397 26.6079ZM95.6669 24.0826C93.7118 24.0826 92.3541 22.7792 92.3541 19.7379C92.3541 16.6695 93.7118 15.3661 95.6669 15.3661C97.6492 15.3661 99.0069 16.6695 99.0069 19.7379C99.0069 22.7792 97.6492 24.0826 95.6669 24.0826ZM107.805 26.3364V8.14304H104.764V26.3364H107.805ZM118.137 26.3364L122.861 13.1123H119.549L117.322 20.3081L116.263 24.3541L115.177 20.3081L112.923 13.1123H109.556L114.254 26.3364H118.137ZM129.749 26.6079C132.681 26.6079 134.473 25.2774 135.478 23.7567L133.605 21.8016C133.116 22.9149 132.084 24.1097 129.776 24.1097C127.685 24.1097 126.3 22.8335 126.137 20.4711H135.587C135.641 20.1995 135.695 19.6293 135.695 19.1405C135.695 15.4747 133.496 12.8407 129.531 12.8407C125.811 12.8407 123.232 15.5833 123.232 19.7379C123.232 23.8653 125.811 26.6079 129.749 26.6079ZM129.531 15.2846C131.541 15.2846 132.736 16.4251 132.953 18.5159H126.164C126.409 16.3708 127.658 15.2846 129.531 15.2846ZM146.724 26.3364C150.634 26.3364 153.051 24.7343 153.051 21.5029C153.051 19.059 151.585 17.2125 147.457 16.8867C150.39 16.6423 152.291 15.2031 152.291 12.7864C152.291 10.0981 150.553 8.14304 146.86 8.14304H138.605V26.3364H146.724ZM145.937 10.8585C147.838 10.8585 149.114 11.4559 149.114 13.3023C149.114 15.1488 147.865 15.7191 146.045 15.7191H141.674V10.8585H145.937ZM146.344 18.2987C148.462 18.2987 149.901 19.1133 149.901 20.9598C149.901 22.8063 148.761 23.6209 146.263 23.6209H141.674V18.2987H146.344ZM159.043 26.3364V20.5797H163.415C167.27 20.5797 170.23 18.5974 170.23 14.4428C170.23 10.0981 167.243 8.14304 163.415 8.14304H155.974V26.3364H159.043ZM163.116 10.8585C165.207 10.8585 167.053 11.6188 167.053 14.4428C167.053 17.0768 165.207 17.8642 163.116 17.8642H159.043V10.8585H163.116ZM175.59 26.3364V17.7828L175.155 11.7817L177.301 16.9953L180.45 23.2679H183.546L186.696 16.9953L188.787 11.7817L188.407 17.7828V26.3364H191.475V8.14304H187.728L183.818 16.1264L181.998 20.7697L180.206 16.1264L176.296 8.14304H172.521V26.3364H175.59Z" fill="white"/>
<path d="M64.7744 43.1692H62.8692V36.6662H64.8887C65.5089 36.6662 66.0392 36.7954 66.4795 37.0536C66.9219 37.3119 67.2606 37.6823 67.4956 38.165C67.7306 38.6476 67.8481 39.2266 67.8481 39.9018C67.8481 40.5835 67.7274 41.1688 67.4861 41.6578C67.2469 42.1447 66.8976 42.5183 66.4382 42.7787C65.981 43.039 65.4264 43.1692 64.7744 43.1692ZM63.463 42.6358H64.7395C65.2983 42.6358 65.7661 42.5257 66.1429 42.3055C66.5197 42.0854 66.8023 41.771 66.9907 41.3625C67.1791 40.9539 67.2733 40.467 67.2733 39.9018C67.2712 39.3409 67.1781 38.8582 66.9939 38.4539C66.8119 38.0496 66.5409 37.7395 66.181 37.5236C65.8233 37.3076 65.3809 37.1997 64.8538 37.1997H63.463V42.6358ZM71.1416 43.2708C70.6865 43.2708 70.2928 43.165 69.9604 42.9533C69.6281 42.7395 69.3709 42.4442 69.1888 42.0674C69.0089 41.6885 68.9189 41.2524 68.9189 40.7592C68.9189 40.2681 69.0089 39.832 69.1888 39.451C69.3709 39.0678 69.6217 38.7683 69.9414 38.5524C70.2631 38.3343 70.6346 38.2253 71.0559 38.2253C71.3205 38.2253 71.5756 38.274 71.8211 38.3714C72.0667 38.4666 72.2869 38.6137 72.4816 38.8127C72.6785 39.0096 72.8341 39.2583 72.9484 39.5589C73.0627 39.8574 73.1198 40.2109 73.1198 40.6195V40.8989H69.3095V40.4004H72.5419C72.5419 40.0871 72.4784 39.8055 72.3514 39.5557C72.2265 39.3038 72.0519 39.1049 71.8275 38.9588C71.6052 38.8127 71.348 38.7397 71.0559 38.7397C70.7468 38.7397 70.4748 38.8222 70.2398 38.9874C70.0049 39.1525 69.8207 39.3705 69.6873 39.6415C69.5561 39.9124 69.4894 40.2088 69.4873 40.5306V40.829C69.4873 41.2164 69.554 41.5551 69.6873 41.8451C69.8228 42.133 70.0144 42.3563 70.2621 42.5151C70.5097 42.6739 70.8029 42.7533 71.1416 42.7533C71.3724 42.7533 71.5745 42.7173 71.7481 42.6453C71.9238 42.5733 72.0709 42.477 72.1895 42.3563C72.3101 42.2336 72.4012 42.0991 72.4626 41.9531L72.9992 42.1277C72.9251 42.3331 72.8034 42.5225 72.634 42.6961C72.4668 42.8697 72.2572 43.0094 72.0053 43.1152C71.7555 43.219 71.4676 43.2708 71.1416 43.2708ZM76.2705 43.2708C75.8344 43.2708 75.4545 43.1618 75.1306 42.9438C74.8088 42.7257 74.559 42.4273 74.3812 42.0483C74.2034 41.6694 74.1145 41.2376 74.1145 40.7528C74.1145 40.2638 74.2045 39.8288 74.3844 39.4478C74.5664 39.0667 74.8183 38.7683 75.1401 38.5524C75.4619 38.3343 75.8355 38.2253 76.261 38.2253C76.587 38.2253 76.8823 38.2888 77.1469 38.4158C77.4115 38.5407 77.6295 38.7175 77.801 38.9461C77.9746 39.1726 78.0836 39.4372 78.1281 39.7399H77.5565C77.4972 39.4647 77.3543 39.2297 77.1278 39.035C76.9035 38.8381 76.6177 38.7397 76.2705 38.7397C75.9593 38.7397 75.6841 38.8244 75.4449 38.9937C75.2057 39.1609 75.0184 39.3949 74.8829 39.6955C74.7496 39.9939 74.6829 40.34 74.6829 40.7338C74.6829 41.1296 74.7485 41.48 74.8797 41.7848C75.011 42.0875 75.1951 42.3246 75.4322 42.4961C75.6714 42.6675 75.9509 42.7533 76.2705 42.7533C76.4864 42.7533 76.6833 42.713 76.8611 42.6326C77.0411 42.55 77.1913 42.4336 77.312 42.2833C77.4348 42.133 77.5173 41.9541 77.5597 41.7467H78.1312C78.0889 42.0409 77.9841 42.3034 77.8169 42.5342C77.6518 42.7628 77.4369 42.9427 77.1723 43.074C76.9098 43.2052 76.6092 43.2708 76.2705 43.2708ZM81.2383 43.2708C80.817 43.2708 80.4444 43.1639 80.1206 42.9501C79.7988 42.7363 79.5469 42.441 79.3648 42.0642C79.1828 41.6853 79.0918 41.2482 79.0918 40.7528C79.0918 40.2532 79.1828 39.814 79.3648 39.4351C79.5469 39.054 79.7988 38.7577 80.1206 38.546C80.4444 38.3322 80.817 38.2253 81.2383 38.2253C81.6595 38.2253 82.031 38.3322 82.3528 38.546C82.6745 38.7598 82.9264 39.0562 83.1085 39.4351C83.2927 39.814 83.3847 40.2532 83.3847 40.7528C83.3847 41.2482 83.2937 41.6853 83.1117 42.0642C82.9296 42.441 82.6767 42.7363 82.3528 42.9501C82.031 43.1639 81.6595 43.2708 81.2383 43.2708ZM81.2383 42.7533C81.577 42.7533 81.8638 42.6622 82.0988 42.4802C82.3337 42.2981 82.5115 42.0558 82.6322 41.753C82.755 41.4503 82.8164 41.1169 82.8164 40.7528C82.8164 40.3887 82.755 40.0543 82.6322 39.7494C82.5115 39.4446 82.3337 39.2001 82.0988 39.0159C81.8638 38.8318 81.577 38.7397 81.2383 38.7397C80.9017 38.7397 80.6148 38.8318 80.3777 39.0159C80.1428 39.2001 79.9639 39.4446 79.8411 39.7494C79.7205 40.0543 79.6601 40.3887 79.6601 40.7528C79.6601 41.1169 79.7205 41.4503 79.8411 41.753C79.9639 42.0558 80.1428 42.2981 80.3777 42.4802C80.6127 42.6622 80.8996 42.7533 81.2383 42.7533ZM86.3814 43.2708C85.9813 43.2708 85.631 43.165 85.3304 42.9533C85.0298 42.7416 84.7948 42.4463 84.6255 42.0674C84.4583 41.6885 84.3746 41.2471 84.3746 40.7433C84.3746 40.2416 84.4583 39.8024 84.6255 39.4256C84.7948 39.0466 85.0309 38.7524 85.3336 38.5428C85.6363 38.3311 85.9887 38.2253 86.391 38.2253C86.6873 38.2253 86.9339 38.2782 87.1308 38.3841C87.3277 38.4878 87.4854 38.6169 87.6039 38.7714C87.7225 38.926 87.8145 39.0763 87.8802 39.2223H87.931V36.6662H88.4993V43.1692H87.9468V42.2643H87.8802C87.8145 42.4124 87.7214 42.5649 87.6007 42.7215C87.4801 42.876 87.3203 43.0062 87.1213 43.1121C86.9244 43.2179 86.6778 43.2708 86.3814 43.2708ZM86.4481 42.7533C86.7635 42.7533 87.0324 42.6675 87.2546 42.4961C87.4769 42.3225 87.6462 42.0843 87.7627 41.7816C87.8812 41.4768 87.9405 41.1275 87.9405 40.7338C87.9405 40.3443 87.8823 40.0003 87.7659 39.7018C87.6494 39.4012 87.4801 39.1662 87.2578 38.9969C87.0355 38.8254 86.7656 38.7397 86.4481 38.7397C86.1221 38.7397 85.8469 38.8286 85.6225 39.0064C85.4003 39.1821 85.2309 39.4203 85.1145 39.7209C85.0002 40.0215 84.943 40.3591 84.943 40.7338C84.943 41.1127 85.0012 41.4546 85.1177 41.7594C85.2341 42.0642 85.4034 42.3066 85.6257 42.4865C85.8501 42.6643 86.1242 42.7533 86.4481 42.7533ZM90.1156 43.1692V38.292H90.6839V43.1692H90.1156ZM90.4045 37.4537C90.2881 37.4537 90.1886 37.4145 90.106 37.3362C90.0235 37.2558 89.9822 37.1595 89.9822 37.0473C89.9822 36.9351 90.0235 36.8398 90.106 36.7615C90.1886 36.681 90.2881 36.6408 90.4045 36.6408C90.5209 36.6408 90.6204 36.681 90.703 36.7615C90.7856 36.8398 90.8268 36.9351 90.8268 37.0473C90.8268 37.1595 90.7856 37.2558 90.703 37.3362C90.6204 37.4145 90.5209 37.4537 90.4045 37.4537ZM92.7439 40.1209V43.1692H92.1787V38.292H92.728V39.0572H92.7788C92.8931 38.8074 93.071 38.6074 93.3123 38.4571C93.5557 38.3047 93.8563 38.2285 94.2141 38.2285C94.5422 38.2285 94.8301 38.2973 95.0777 38.4349C95.3275 38.5703 95.5212 38.7704 95.6588 39.035C95.7985 39.2996 95.8684 39.6245 95.8684 40.0098V43.1692H95.3032V40.0447C95.3032 39.6446 95.191 39.3282 94.9666 39.0953C94.7443 38.8625 94.4459 38.746 94.0712 38.746C93.815 38.746 93.5875 38.8011 93.3885 38.9112C93.1895 39.0212 93.0318 39.18 92.9154 39.3875C92.8011 39.5928 92.7439 39.8373 92.7439 40.1209ZM99.2175 45.0998C98.8852 45.0998 98.5941 45.0564 98.3443 44.9696C98.0945 44.8849 97.8839 44.7685 97.7124 44.6203C97.541 44.4721 97.4076 44.306 97.3124 44.1218L97.7759 43.817C97.8458 43.9398 97.9389 44.0604 98.0554 44.179C98.1739 44.2975 98.3274 44.3959 98.5158 44.4743C98.7063 44.5526 98.9402 44.5917 99.2175 44.5917C99.6494 44.5917 99.9976 44.4838 100.262 44.2679C100.529 44.052 100.662 43.7164 100.662 43.2613V42.1627H100.611C100.546 42.3108 100.452 42.459 100.329 42.6072C100.206 42.7533 100.045 42.875 99.8462 42.9724C99.6494 43.0697 99.4049 43.1184 99.1127 43.1184C98.7232 43.1184 98.3771 43.0221 98.0744 42.8295C97.7738 42.6368 97.5367 42.3616 97.3632 42.0039C97.1917 41.644 97.106 41.2154 97.106 40.7179C97.106 40.2247 97.1896 39.7907 97.3568 39.416C97.5262 39.0413 97.7622 38.7492 98.0649 38.5396C98.3676 38.3301 98.7201 38.2253 99.1223 38.2253C99.4207 38.2253 99.6684 38.2782 99.8653 38.3841C100.062 38.4878 100.22 38.6169 100.338 38.7714C100.459 38.926 100.553 39.0763 100.621 39.2223H100.678V38.292H101.231V43.2962C101.231 43.709 101.143 44.0488 100.967 44.3155C100.791 44.5822 100.552 44.7791 100.249 44.9061C99.9468 45.0352 99.6028 45.0998 99.2175 45.0998ZM99.1794 42.6008C99.4927 42.6008 99.7605 42.5257 99.9828 42.3754C100.205 42.223 100.375 42.0049 100.494 41.7213C100.613 41.4376 100.672 41.1 100.672 40.7084C100.672 40.3273 100.614 39.9897 100.497 39.6955C100.381 39.3991 100.211 39.1662 99.9891 38.9969C99.769 38.8254 99.4991 38.7397 99.1794 38.7397C98.8534 38.7397 98.5782 38.8275 98.3539 39.0032C98.1295 39.1789 97.9601 39.416 97.8458 39.7145C97.7315 40.0109 97.6743 40.3422 97.6743 40.7084C97.6743 41.0809 97.7326 41.4101 97.849 41.6959C97.9654 41.9795 98.1358 42.2018 98.3602 42.3627C98.5846 42.5215 98.8577 42.6008 99.1794 42.6008ZM107.163 38.292V38.7841H104.835V38.292H107.163ZM105.563 37.1235H106.131V41.8959C106.131 42.0991 106.166 42.259 106.236 42.3754C106.306 42.4897 106.397 42.5712 106.509 42.6199C106.621 42.6665 106.741 42.6898 106.868 42.6898C106.942 42.6898 107.005 42.6855 107.058 42.6771C107.111 42.6665 107.158 42.6559 107.198 42.6453L107.318 43.1565C107.263 43.1777 107.196 43.1967 107.115 43.2137C107.035 43.2327 106.935 43.2423 106.817 43.2423C106.609 43.2423 106.409 43.1967 106.217 43.1057C106.026 43.0147 105.869 42.8792 105.747 42.6993C105.624 42.5193 105.563 42.296 105.563 42.0293V37.1235ZM109.116 40.1209V43.1692H108.551V36.6662H109.116V39.0572H109.167C109.282 38.8053 109.458 38.6042 109.698 38.4539C109.939 38.3036 110.244 38.2285 110.612 38.2285C110.942 38.2285 111.232 38.2962 111.482 38.4317C111.732 38.5672 111.927 38.7672 112.066 39.0318C112.206 39.2964 112.276 39.6224 112.276 40.0098V43.1692H111.708V40.0447C111.708 39.6425 111.595 39.3261 111.371 39.0953C111.149 38.8625 110.848 38.746 110.469 38.746C110.209 38.746 109.977 38.8011 109.774 38.9112C109.571 39.0212 109.41 39.18 109.291 39.3875C109.175 39.5928 109.116 39.8373 109.116 40.1209ZM115.736 43.2708C115.281 43.2708 114.887 43.165 114.555 42.9533C114.223 42.7395 113.965 42.4442 113.783 42.0674C113.603 41.6885 113.513 41.2524 113.513 40.7592C113.513 40.2681 113.603 39.832 113.783 39.451C113.965 39.0678 114.216 38.7683 114.536 38.5524C114.858 38.3343 115.229 38.2253 115.65 38.2253C115.915 38.2253 116.17 38.274 116.416 38.3714C116.661 38.4666 116.881 38.6137 117.076 38.8127C117.273 39.0096 117.429 39.2583 117.543 39.5589C117.657 39.8574 117.714 40.2109 117.714 40.6195V40.8989H113.904V40.4004H117.136C117.136 40.0871 117.073 39.8055 116.946 39.5557C116.821 39.3038 116.646 39.1049 116.422 38.9588C116.2 38.8127 115.943 38.7397 115.65 38.7397C115.341 38.7397 115.069 38.8222 114.834 38.9874C114.599 39.1525 114.415 39.3705 114.282 39.6415C114.151 39.9124 114.084 40.2088 114.082 40.5306V40.829C114.082 41.2164 114.149 41.5551 114.282 41.8451C114.417 42.133 114.609 42.3563 114.857 42.5151C115.104 42.6739 115.397 42.7533 115.736 42.7533C115.967 42.7533 116.169 42.7173 116.343 42.6453C116.518 42.5733 116.665 42.477 116.784 42.3563C116.905 42.2336 116.996 42.0991 117.057 41.9531L117.594 42.1277C117.52 42.3331 117.398 42.5225 117.229 42.6961C117.061 42.8697 116.852 43.0094 116.6 43.1152C116.35 43.219 116.062 43.2708 115.736 43.2708ZM124.752 39.362L124.234 39.5081C124.183 39.362 124.111 39.2297 124.018 39.1112C123.925 38.9927 123.803 38.8985 123.653 38.8286C123.505 38.7587 123.321 38.7238 123.1 38.7238C122.77 38.7238 122.499 38.8021 122.288 38.9588C122.076 39.1154 121.97 39.3176 121.97 39.5653C121.97 39.7748 122.042 39.9452 122.186 40.0765C122.332 40.2056 122.556 40.3083 122.859 40.3845L123.596 40.5655C124.004 40.665 124.31 40.8227 124.513 41.0386C124.719 41.2545 124.821 41.5255 124.821 41.8515C124.821 42.1267 124.745 42.3712 124.593 42.585C124.44 42.7988 124.228 42.9671 123.955 43.0898C123.684 43.2105 123.369 43.2708 123.012 43.2708C122.535 43.2708 122.143 43.1639 121.834 42.9501C121.524 42.7342 121.327 42.423 121.24 42.0166L121.783 41.8832C121.853 42.1732 121.989 42.3923 122.192 42.5405C122.398 42.6887 122.668 42.7628 123.002 42.7628C123.377 42.7628 123.676 42.6792 123.901 42.5119C124.125 42.3426 124.237 42.1309 124.237 41.8769C124.237 41.68 124.172 41.5149 124.04 41.3815C123.909 41.2461 123.71 41.1466 123.443 41.0831L122.646 40.8925C122.223 40.7909 121.91 40.63 121.707 40.4099C121.503 40.1897 121.402 39.9167 121.402 39.5907C121.402 39.3218 121.475 39.0858 121.621 38.8826C121.767 38.6772 121.968 38.5164 122.224 38.3999C122.48 38.2835 122.772 38.2253 123.1 38.2253C123.547 38.2253 123.904 38.3269 124.171 38.5301C124.439 38.7312 124.633 39.0085 124.752 39.362ZM127.421 43.2804C127.127 43.2804 126.858 43.2232 126.615 43.1089C126.371 42.9925 126.178 42.8252 126.034 42.6072C125.89 42.387 125.818 42.1203 125.818 41.807C125.818 41.5657 125.863 41.3625 125.954 41.1974C126.045 41.0323 126.174 40.8968 126.342 40.7909C126.509 40.6851 126.707 40.6015 126.935 40.5401C127.164 40.4787 127.416 40.4311 127.691 40.3972C127.964 40.3633 128.195 40.3337 128.383 40.3083C128.574 40.2829 128.719 40.2427 128.818 40.1876C128.918 40.1326 128.968 40.0437 128.968 39.9209V39.8066C128.968 39.4742 128.868 39.2128 128.669 39.0223C128.472 38.8297 128.189 38.7333 127.818 38.7333C127.467 38.7333 127.18 38.8106 126.958 38.9651C126.737 39.1197 126.583 39.3017 126.494 39.5113L125.957 39.3176C126.068 39.0509 126.22 38.8381 126.415 38.6794C126.609 38.5185 126.827 38.4031 127.069 38.3333C127.31 38.2613 127.555 38.2253 127.802 38.2253C127.989 38.2253 128.182 38.2496 128.383 38.2983C128.587 38.347 128.775 38.4317 128.949 38.5524C129.122 38.6709 129.263 38.8371 129.371 39.0509C129.479 39.2626 129.533 39.5314 129.533 39.8574V43.1692H128.968V42.3976H128.933C128.865 42.5416 128.764 42.6813 128.631 42.8168C128.498 42.9522 128.33 43.0634 128.129 43.1502C127.928 43.237 127.692 43.2804 127.421 43.2804ZM127.497 42.7628C127.798 42.7628 128.058 42.6961 128.279 42.5627C128.499 42.4294 128.668 42.2526 128.787 42.0325C128.907 41.8102 128.968 41.5657 128.968 41.299V40.5941C128.925 40.6343 128.854 40.6703 128.755 40.702C128.657 40.7338 128.544 40.7624 128.415 40.7878C128.288 40.811 128.161 40.8311 128.034 40.8481C127.907 40.865 127.793 40.8798 127.691 40.8925C127.416 40.9264 127.181 40.9793 126.986 41.0513C126.791 41.1233 126.642 41.2228 126.539 41.3498C126.435 41.4747 126.383 41.6356 126.383 41.8324C126.383 42.1288 126.489 42.3585 126.7 42.5215C126.912 42.6823 127.178 42.7628 127.497 42.7628ZM131.602 36.6662V43.1692H131.036V36.6662H131.602ZM135.069 43.2708C134.614 43.2708 134.22 43.165 133.888 42.9533C133.555 42.7395 133.298 42.4442 133.116 42.0674C132.936 41.6885 132.846 41.2524 132.846 40.7592C132.846 40.2681 132.936 39.832 133.116 39.451C133.298 39.0678 133.549 38.7683 133.869 38.5524C134.19 38.3343 134.562 38.2253 134.983 38.2253C135.248 38.2253 135.503 38.274 135.748 38.3714C135.994 38.4666 136.214 38.6137 136.409 38.8127C136.606 39.0096 136.761 39.2583 136.876 39.5589C136.99 39.8574 137.047 40.2109 137.047 40.6195V40.8989H133.237V40.4004H136.469C136.469 40.0871 136.406 39.8055 136.279 39.5557C136.154 39.3038 135.979 39.1049 135.755 38.9588C135.533 38.8127 135.275 38.7397 134.983 38.7397C134.674 38.7397 134.402 38.8222 134.167 38.9874C133.932 39.1525 133.748 39.3705 133.615 39.6415C133.483 39.9124 133.417 40.2088 133.415 40.5306V40.829C133.415 41.2164 133.481 41.5551 133.615 41.8451C133.75 42.133 133.942 42.3563 134.189 42.5151C134.437 42.6739 134.73 42.7533 135.069 42.7533C135.3 42.7533 135.502 42.7173 135.675 42.6453C135.851 42.5733 135.998 42.477 136.117 42.3563C136.237 42.2336 136.328 42.0991 136.39 41.9531L136.926 42.1277C136.852 42.3331 136.731 42.5225 136.561 42.6961C136.394 42.8697 136.184 43.0094 135.933 43.1152C135.683 43.219 135.395 43.2708 135.069 43.2708ZM141.57 39.362L141.052 39.5081C141.001 39.362 140.929 39.2297 140.836 39.1112C140.743 38.9927 140.621 38.8985 140.471 38.8286C140.323 38.7587 140.139 38.7238 139.918 38.7238C139.588 38.7238 139.317 38.8021 139.105 38.9588C138.894 39.1154 138.788 39.3176 138.788 39.5653C138.788 39.7748 138.86 39.9452 139.004 40.0765C139.15 40.2056 139.374 40.3083 139.677 40.3845L140.414 40.5655C140.822 40.665 141.128 40.8227 141.331 41.0386C141.537 41.2545 141.639 41.5255 141.639 41.8515C141.639 42.1267 141.563 42.3712 141.411 42.585C141.258 42.7988 141.046 42.9671 140.773 43.0898C140.502 43.2105 140.187 43.2708 139.829 43.2708C139.353 43.2708 138.96 43.1639 138.651 42.9501C138.342 42.7342 138.144 42.423 138.058 42.0166L138.601 41.8832C138.67 42.1732 138.807 42.3923 139.01 42.5405C139.216 42.6887 139.485 42.7628 139.82 42.7628C140.195 42.7628 140.494 42.6792 140.719 42.5119C140.943 42.3426 141.055 42.1309 141.055 41.8769C141.055 41.68 140.99 41.5149 140.858 41.3815C140.727 41.2461 140.528 41.1466 140.261 41.0831L139.464 40.8925C139.041 40.7909 138.728 40.63 138.524 40.4099C138.321 40.1897 138.22 39.9167 138.22 39.5907C138.22 39.3218 138.293 39.0858 138.439 38.8826C138.585 38.6772 138.786 38.5164 139.042 38.3999C139.298 38.2835 139.59 38.2253 139.918 38.2253C140.365 38.2253 140.722 38.3269 140.988 38.5301C141.257 38.7312 141.451 39.0085 141.57 39.362ZM147.364 43.2708C146.909 43.2708 146.515 43.165 146.182 42.9533C145.85 42.7395 145.593 42.4442 145.411 42.0674C145.231 41.6885 145.141 41.2524 145.141 40.7592C145.141 40.2681 145.231 39.832 145.411 39.451C145.593 39.0678 145.844 38.7683 146.163 38.5524C146.485 38.3343 146.857 38.2253 147.278 38.2253C147.543 38.2253 147.798 38.274 148.043 38.3714C148.289 38.4666 148.509 38.6137 148.704 38.8127C148.9 39.0096 149.056 39.2583 149.17 39.5589C149.285 39.8574 149.342 40.2109 149.342 40.6195V40.8989H145.531V40.4004H148.764C148.764 40.0871 148.7 39.8055 148.573 39.5557C148.449 39.3038 148.274 39.1049 148.049 38.9588C147.827 38.8127 147.57 38.7397 147.278 38.7397C146.969 38.7397 146.697 38.8222 146.462 38.9874C146.227 39.1525 146.043 39.3705 145.909 39.6415C145.778 39.9124 145.711 40.2088 145.709 40.5306V40.829C145.709 41.2164 145.776 41.5551 145.909 41.8451C146.045 42.133 146.236 42.3563 146.484 42.5151C146.732 42.6739 147.025 42.7533 147.364 42.7533C147.594 42.7533 147.797 42.7173 147.97 42.6453C148.146 42.5733 148.293 42.477 148.411 42.3563C148.532 42.2336 148.623 42.0991 148.685 41.9531L149.221 42.1277C149.147 42.3331 149.025 42.5225 148.856 42.6961C148.689 42.8697 148.479 43.0094 148.227 43.1152C147.978 43.219 147.69 43.2708 147.364 43.2708ZM152.493 43.2708C152.056 43.2708 151.676 43.1618 151.353 42.9438C151.031 42.7257 150.781 42.4273 150.603 42.0483C150.425 41.6694 150.337 41.2376 150.337 40.7528C150.337 40.2638 150.426 39.8288 150.606 39.4478C150.788 39.0667 151.04 38.7683 151.362 38.5524C151.684 38.3343 152.058 38.2253 152.483 38.2253C152.809 38.2253 153.104 38.2888 153.369 38.4158C153.634 38.5407 153.852 38.7175 154.023 38.9461C154.197 39.1726 154.306 39.4372 154.35 39.7399H153.779C153.719 39.4647 153.576 39.2297 153.35 39.035C153.125 38.8381 152.84 38.7397 152.493 38.7397C152.181 38.7397 151.906 38.8244 151.667 38.9937C151.428 39.1609 151.24 39.3949 151.105 39.6955C150.972 39.9939 150.905 40.34 150.905 40.7338C150.905 41.1296 150.971 41.48 151.102 41.7848C151.233 42.0875 151.417 42.3246 151.654 42.4961C151.893 42.6675 152.173 42.7533 152.493 42.7533C152.708 42.7533 152.905 42.713 153.083 42.6326C153.263 42.55 153.413 42.4336 153.534 42.2833C153.657 42.133 153.739 41.9541 153.782 41.7467H154.353C154.311 42.0409 154.206 42.3034 154.039 42.5342C153.874 42.7628 153.659 42.9427 153.394 43.074C153.132 43.2052 152.831 43.2708 152.493 43.2708ZM157.46 43.2708C157.039 43.2708 156.666 43.1639 156.343 42.9501C156.021 42.7363 155.769 42.441 155.587 42.0642C155.405 41.6853 155.314 41.2482 155.314 40.7528C155.314 40.2532 155.405 39.814 155.587 39.4351C155.769 39.054 156.021 38.7577 156.343 38.546C156.666 38.3322 157.039 38.2253 157.46 38.2253C157.882 38.2253 158.253 38.3322 158.575 38.546C158.897 38.7598 159.148 39.0562 159.331 39.4351C159.515 39.814 159.607 40.2532 159.607 40.7528C159.607 41.2482 159.516 41.6853 159.334 42.0642C159.152 42.441 158.899 42.7363 158.575 42.9501C158.253 43.1639 157.882 43.2708 157.46 43.2708ZM157.46 42.7533C157.799 42.7533 158.086 42.6622 158.321 42.4802C158.556 42.2981 158.734 42.0558 158.854 41.753C158.977 41.4503 159.038 41.1169 159.038 40.7528C159.038 40.3887 158.977 40.0543 158.854 39.7494C158.734 39.4446 158.556 39.2001 158.321 39.0159C158.086 38.8318 157.799 38.7397 157.46 38.7397C157.124 38.7397 156.837 38.8318 156.6 39.0159C156.365 39.2001 156.186 39.4446 156.063 39.7494C155.942 40.0543 155.882 40.3887 155.882 40.7528C155.882 41.1169 155.942 41.4503 156.063 41.753C156.186 42.0558 156.365 42.2981 156.6 42.4802C156.835 42.6622 157.122 42.7533 157.46 42.7533ZM164.124 39.362L163.607 39.5081C163.556 39.362 163.484 39.2297 163.391 39.1112C163.298 38.9927 163.176 38.8985 163.026 38.8286C162.878 38.7587 162.693 38.7238 162.473 38.7238C162.143 38.7238 161.872 38.8021 161.66 38.9588C161.449 39.1154 161.343 39.3176 161.343 39.5653C161.343 39.7748 161.415 39.9452 161.559 40.0765C161.705 40.2056 161.929 40.3083 162.232 40.3845L162.969 40.5655C163.377 40.665 163.683 40.8227 163.886 41.0386C164.092 41.2545 164.194 41.5255 164.194 41.8515C164.194 42.1267 164.118 42.3712 163.966 42.585C163.813 42.7988 163.6 42.9671 163.327 43.0898C163.056 43.2105 162.742 43.2708 162.384 43.2708C161.908 43.2708 161.515 43.1639 161.206 42.9501C160.897 42.7342 160.699 42.423 160.613 42.0166L161.155 41.8832C161.225 42.1732 161.362 42.3923 161.565 42.5405C161.77 42.6887 162.04 42.7628 162.375 42.7628C162.749 42.7628 163.049 42.6792 163.273 42.5119C163.498 42.3426 163.61 42.1309 163.61 41.8769C163.61 41.68 163.544 41.5149 163.413 41.3815C163.282 41.2461 163.083 41.1466 162.816 41.0831L162.019 40.8925C161.596 40.7909 161.283 40.63 161.079 40.4099C160.876 40.1897 160.774 39.9167 160.774 39.5907C160.774 39.3218 160.847 39.0858 160.994 38.8826C161.14 38.6772 161.341 38.5164 161.597 38.3999C161.853 38.2835 162.145 38.2253 162.473 38.2253C162.92 38.2253 163.277 38.3269 163.543 38.5301C163.812 38.7312 164.006 39.0085 164.124 39.362ZM165.826 44.9982C165.713 44.9982 165.609 44.9876 165.511 44.9664C165.414 44.9453 165.337 44.922 165.279 44.8966L165.432 44.3981C165.624 44.4573 165.796 44.4785 165.946 44.4616C166.097 44.4467 166.23 44.379 166.346 44.2583C166.463 44.1398 166.566 43.9577 166.657 43.7122L166.835 43.2168L165.041 38.292H165.654L167.102 42.423H167.146L168.594 38.292H169.207L167.143 43.9408C167.057 44.1758 166.95 44.3716 166.823 44.5282C166.696 44.687 166.548 44.8045 166.381 44.8807C166.216 44.959 166.031 44.9982 165.826 44.9982ZM173.59 39.362L173.072 39.5081C173.022 39.362 172.95 39.2297 172.856 39.1112C172.763 38.9927 172.642 38.8985 172.491 38.8286C172.343 38.7587 172.159 38.7238 171.939 38.7238C171.609 38.7238 171.338 38.8021 171.126 38.9588C170.914 39.1154 170.808 39.3176 170.808 39.5653C170.808 39.7748 170.88 39.9452 171.024 40.0765C171.17 40.2056 171.395 40.3083 171.697 40.3845L172.434 40.5655C172.843 40.665 173.149 40.8227 173.352 41.0386C173.557 41.2545 173.66 41.5255 173.66 41.8515C173.66 42.1267 173.584 42.3712 173.431 42.585C173.279 42.7988 173.066 42.9671 172.793 43.0898C172.522 43.2105 172.208 43.2708 171.85 43.2708C171.374 43.2708 170.981 43.1639 170.672 42.9501C170.363 42.7342 170.165 42.423 170.078 42.0166L170.621 41.8832C170.691 42.1732 170.827 42.3923 171.031 42.5405C171.236 42.6887 171.506 42.7628 171.84 42.7628C172.215 42.7628 172.515 42.6792 172.739 42.5119C172.963 42.3426 173.076 42.1309 173.076 41.8769C173.076 41.68 173.01 41.5149 172.879 41.3815C172.747 41.2461 172.548 41.1466 172.282 41.0831L171.485 40.8925C171.061 40.7909 170.748 40.63 170.545 40.4099C170.342 40.1897 170.24 39.9167 170.24 39.5907C170.24 39.3218 170.313 39.0858 170.459 38.8826C170.605 38.6772 170.806 38.5164 171.062 38.3999C171.319 38.2835 171.611 38.2253 171.939 38.2253C172.385 38.2253 172.742 38.3269 173.009 38.5301C173.278 38.7312 173.471 39.0085 173.59 39.362ZM176.818 38.292V38.7841H174.491V38.292H176.818ZM175.218 37.1235H175.786V41.8959C175.786 42.0991 175.821 42.259 175.891 42.3754C175.961 42.4897 176.052 42.5712 176.164 42.6199C176.276 42.6665 176.396 42.6898 176.523 42.6898C176.597 42.6898 176.661 42.6855 176.714 42.6771C176.767 42.6665 176.813 42.6559 176.853 42.6453L176.974 43.1565C176.919 43.1777 176.851 43.1967 176.771 43.2137C176.69 43.2327 176.591 43.2423 176.472 43.2423C176.265 43.2423 176.065 43.1967 175.872 43.1057C175.682 43.0147 175.525 42.8792 175.402 42.6993C175.279 42.5193 175.218 42.296 175.218 42.0293V37.1235ZM180.021 43.2708C179.566 43.2708 179.173 43.165 178.84 42.9533C178.508 42.7395 178.251 42.4442 178.069 42.0674C177.889 41.6885 177.799 41.2524 177.799 40.7592C177.799 40.2681 177.889 39.832 178.069 39.451C178.251 39.0678 178.502 38.7683 178.821 38.5524C179.143 38.3343 179.514 38.2253 179.936 38.2253C180.2 38.2253 180.455 38.274 180.701 38.3714C180.947 38.4666 181.167 38.6137 181.361 38.8127C181.558 39.0096 181.714 39.2583 181.828 39.5589C181.943 39.8574 182 40.2109 182 40.6195V40.8989H178.189V40.4004H181.422C181.422 40.0871 181.358 39.8055 181.231 39.5557C181.106 39.3038 180.932 39.1049 180.707 38.9588C180.485 38.8127 180.228 38.7397 179.936 38.7397C179.627 38.7397 179.355 38.8222 179.12 38.9874C178.885 39.1525 178.701 39.3705 178.567 39.6415C178.436 39.9124 178.369 40.2088 178.367 40.5306V40.829C178.367 41.2164 178.434 41.5551 178.567 41.8451C178.703 42.133 178.894 42.3563 179.142 42.5151C179.39 42.6739 179.683 42.7533 180.021 42.7533C180.252 42.7533 180.454 42.7173 180.628 42.6453C180.804 42.5733 180.951 42.477 181.069 42.3563C181.19 42.2336 181.281 42.0991 181.342 41.9531L181.879 42.1277C181.805 42.3331 181.683 42.5225 181.514 42.6961C181.347 42.8697 181.137 43.0094 180.885 43.1152C180.635 43.219 180.347 43.2708 180.021 43.2708ZM183.245 43.1692V38.292H183.795V39.0413H183.845C183.943 38.7894 184.105 38.5915 184.331 38.4476C184.56 38.3015 184.834 38.2285 185.154 38.2285C185.49 38.2285 185.766 38.3079 185.982 38.4666C186.2 38.6233 186.363 38.8392 186.471 39.1144H186.513C186.623 38.8434 186.802 38.6286 187.049 38.4698C187.299 38.3089 187.602 38.2285 187.957 38.2285C188.41 38.2285 188.768 38.3714 189.031 38.6571C189.293 38.9408 189.424 39.3557 189.424 39.9018V43.1692H188.859V39.9018C188.859 39.5166 188.761 39.2276 188.564 39.035C188.367 38.8424 188.108 38.746 187.786 38.746C187.413 38.746 187.126 38.8604 186.925 39.089C186.724 39.3176 186.624 39.6076 186.624 39.959V43.1692H186.046V39.851C186.046 39.5208 185.954 39.2541 185.77 39.0509C185.585 38.8477 185.326 38.746 184.992 38.746C184.767 38.746 184.565 38.8011 184.385 38.9112C184.207 39.0212 184.067 39.1747 183.963 39.3716C183.861 39.5663 183.81 39.7907 183.81 40.0447V43.1692H183.245Z" fill="white"/>
<path fill-rule="evenodd" clip-rule="evenodd" d="M36.455 30.8227C36.1783 30.995 35.8539 31.1168 35.4817 31.1856C35.1188 31.2465 34.7427 31.2769 34.3534 31.2769C33.9721 31.2769 33.6173 31.2678 33.2887 31.2504C32.7179 31.2333 32.1378 31.1643 31.5499 31.0428C30.9698 30.9221 30.4122 30.7183 29.876 30.4333C30.0309 30.2254 30.2004 30.0866 30.3819 30.0175C30.5724 29.9487 30.7538 29.8574 30.9262 29.745C31.0308 29.46 31.126 29.1091 31.2122 28.6935C31.3074 28.2868 31.4201 27.8855 31.5499 27.4868C31.6877 27.0884 31.8743 26.7601 32.1074 26.5005C32.3498 26.25 32.6743 26.1283 33.0808 26.1374C32.9429 26.5958 32.8435 27.0419 32.7828 27.4738C32.7218 27.9148 32.6743 28.3517 32.6398 28.7846C32.6052 29.2259 32.5484 29.6669 32.4716 30.1089C32.808 29.7621 33.1285 29.3515 33.4317 28.876C33.7429 28.3994 34.0541 27.9452 34.3653 27.5133C34.6859 27.0713 35.0236 26.7427 35.3784 26.5267C35.7332 26.3017 36.1267 26.2672 36.5596 26.4224C35.7374 27.7983 34.9758 29.1701 34.2753 30.5367C34.6898 30.3116 35.0965 30.0308 35.4949 29.6931C35.8843 29.3474 36.2736 29.0058 36.6629 28.6681C37.0614 28.3213 37.4681 28.0366 37.8826 27.8113C38.2984 27.5953 38.7353 27.4962 39.1936 27.5133C39.3842 27.634 39.5697 27.7557 39.7512 27.8762C39.3021 28.1266 38.8996 28.434 38.5447 28.7979C38.1899 29.1527 37.8522 29.5117 37.533 29.8748C37.2033 30.2387 36.8444 30.554 36.455 30.8227Z" fill="white"/>
<path fill-rule="evenodd" clip-rule="evenodd" d="M27.3322 26.1242C27.3494 25.9773 27.3322 25.8171 27.2806 25.6437C27.2276 25.4714 27.1892 25.3071 27.1628 25.1508C27.1285 24.9948 27.1589 24.87 27.2541 24.7747C27.7642 24.9299 28.1281 25.155 28.344 25.449C28.5691 25.7522 28.6988 26.1029 28.7334 26.5005C28.7679 26.8989 28.7637 27.3135 28.7201 27.7464C28.6775 28.1794 28.6472 28.6032 28.63 29.018C28.6127 29.4335 28.6552 29.8138 28.7598 30.1606C29.6763 30.7487 30.5848 31.142 31.4852 31.3418C32.3763 31.5313 33.2585 31.5962 34.1325 31.5365C35.0064 31.4758 35.8673 31.359 36.7148 31.1856C37.5625 31.0122 38.3981 30.852 39.2203 30.7051C39.5142 30.6535 39.8386 30.6016 40.1937 30.5499C40.5475 30.4983 40.8901 30.4811 41.2187 30.4983C41.547 30.5154 41.824 30.6057 42.049 30.77C42.265 30.926 42.3867 31.1949 42.4119 31.5749C40.8639 31.7657 39.3449 32.1153 37.8576 32.6264C36.3771 33.1284 34.9111 33.7295 33.4571 34.4301C32.0124 35.1309 30.5726 35.8618 29.1359 36.6233V43.5017H25.6054V36.6628C25.1735 35.0447 25.0823 33.3615 25.3339 31.6136C25.5841 29.8574 26.2504 28.0273 27.3322 26.1242Z" fill="white"/>
<path fill-rule="evenodd" clip-rule="evenodd" d="M12.6021 27.6036C12.9042 27.7942 13.259 27.9239 13.6655 27.993C14.0642 28.0709 14.4748 28.1095 14.8984 28.1095C15.3142 28.1095 15.6994 28.0973 16.0545 28.0709C16.6769 28.0537 17.3087 27.9797 17.9482 27.85C18.58 27.7202 19.1905 27.5001 19.7783 27.1889C19.6061 26.9638 19.4194 26.8117 19.2209 26.7346C19.013 26.6565 18.8141 26.5613 18.6236 26.4486C18.511 26.1283 18.4077 25.7481 18.3125 25.3071C18.2078 24.857 18.0874 24.4157 17.9482 23.9828C17.8013 23.5498 17.5987 23.195 17.3391 22.9183C17.0796 22.6333 16.7285 22.4997 16.2876 22.5168C16.4345 23.0094 16.543 23.4943 16.612 23.9698C16.6728 24.4544 16.7247 24.9299 16.7683 25.3974C16.8109 25.8739 16.8716 26.3533 16.9498 26.8379C16.5856 26.466 16.236 26.0209 15.8982 25.5017C15.5605 24.9826 15.2189 24.4848 14.8733 24.0093C14.5356 23.5327 14.1727 23.1737 13.7834 22.9316C13.394 22.6891 12.9649 22.6546 12.4975 22.828C13.3888 24.3246 14.2202 25.8129 14.9898 27.2922C14.5314 27.05 14.0905 26.7468 13.6655 26.3837C13.2336 26.0118 12.8048 25.6396 12.3809 25.2676C11.9571 24.8874 11.5161 24.58 11.058 24.3459C10.6077 24.1035 10.1322 23.9921 9.6304 24.0093C9.43054 24.1471 9.23171 24.281 9.0332 24.4108C9.52574 24.6875 9.96284 25.021 10.3442 25.4104C10.7242 25.7997 11.0922 26.189 11.4473 26.5784C11.801 26.9771 12.1862 27.3186 12.6021 27.6036Z" fill="white"/>
<path fill-rule="evenodd" clip-rule="evenodd" d="M22.5299 22.5036C22.5125 22.3393 22.5299 22.1659 22.5815 21.9844C22.6423 21.7939 22.69 21.6164 22.7246 21.4521C22.7497 21.288 22.7155 21.1489 22.6199 21.0365C22.0666 21.2019 21.6689 21.4482 21.4268 21.7765C21.1844 22.1051 21.0413 22.4864 20.9977 22.9183C20.9634 23.3513 20.9684 23.8014 21.0109 24.2688C21.0626 24.7443 21.0982 25.2066 21.1155 25.6569C21.1407 26.1151 21.0932 26.5309 20.9726 26.9028C19.9688 27.5426 18.9822 27.9675 18.0128 28.1744C17.0355 28.3914 16.0754 28.4643 15.1325 28.3953C14.1803 28.3346 13.2415 28.21 12.3156 28.0192C11.3992 27.8287 10.4907 27.6511 9.59027 27.4868C9.27911 27.4352 8.92818 27.3783 8.53884 27.3186C8.15885 27.266 7.78664 27.2486 7.42377 27.266C7.05956 27.2831 6.75754 27.3835 6.51532 27.565C6.28088 27.7373 6.1511 28.0272 6.12598 28.434C7.80377 28.6419 9.45249 29.0229 11.0695 29.5766C12.6879 30.1302 14.2848 30.7871 15.8595 31.5487C17.4339 32.31 19.0035 33.1061 20.5699 33.9374V43.5146H24.4117V33.9758C24.8792 32.2108 24.9733 30.3765 24.6964 28.4734C24.4289 26.5693 23.7059 24.58 22.5299 22.5036Z" fill="white"/>
<path fill-rule="evenodd" clip-rule="evenodd" d="M25.5282 27.6166C25.5188 27.6076 25.4926 27.3745 25.4501 26.9161C25.4155 26.458 25.4368 25.8475 25.515 25.0859C25.5837 24.3246 25.7784 23.485 26.0989 22.5685C26.4102 21.6509 26.9121 20.7292 27.6047 19.8036C29.0148 17.9787 30.0744 16.3694 30.7843 14.9763C31.4848 13.5833 31.8093 12.3413 31.7576 11.2514C31.7657 11.2685 31.7789 11.5068 31.796 11.9652C31.8132 12.4153 31.8093 12.9902 31.7828 13.6918C31.7576 14.4004 31.6795 15.1365 31.5497 15.898C31.4199 16.6502 31.2029 17.3428 30.9008 17.9745C30.9088 17.9574 31.1471 17.7798 31.6146 17.4422C32.0727 17.1045 32.6912 16.698 33.4699 16.2225C34.2406 15.7379 35.1013 15.2746 36.0523 14.8333C37.0043 14.3833 37.9738 14.0456 38.9604 13.8216C39.7471 13.6391 40.4822 13.337 41.1666 12.9131C41.8581 12.4802 42.4857 11.9995 43.0484 11.4723C43.6192 10.9441 44.108 10.4302 44.5144 9.92817C44.9209 9.43449 45.2373 9.02776 45.4613 8.70746C45.6783 8.37886 45.791 8.21067 45.799 8.20158C45.8081 8.21067 45.7515 8.40534 45.6308 8.78559C45.5182 9.15754 45.2931 9.64214 44.9554 10.2394C44.6177 10.8447 44.1251 11.4936 43.4762 12.1861C42.8273 12.8775 41.9746 13.5529 40.919 14.2109C39.8637 14.8598 38.5617 15.4215 37.0137 15.898C35.067 16.4769 33.4224 17.1603 32.0821 17.948C30.7487 18.7441 29.6505 19.6313 28.7846 20.6085C27.9291 21.5951 27.2446 22.6759 26.7346 23.853C26.2246 25.021 25.822 26.2752 25.5282 27.6166Z" fill="white"/>
<path fill-rule="evenodd" clip-rule="evenodd" d="M25.7614 20.1675C25.7522 20.1504 25.723 19.8685 25.67 19.324C25.6183 18.7877 25.5709 18.0687 25.5283 17.1694C25.4847 16.2783 25.4753 15.2969 25.5018 14.2231C25.5363 13.1594 25.6358 12.095 25.7998 11.0313C25.9651 9.96659 26.2327 8.99324 26.6049 8.11126C26.9678 7.22824 27.4618 6.52353 28.0842 5.99533C28.0761 5.98703 27.924 6.02959 27.6299 6.12511C27.3452 6.22037 26.9943 6.41893 26.5785 6.7221C26.164 7.03357 25.7614 7.50493 25.372 8.1367C24.9827 8.76821 24.6795 9.61177 24.4636 10.6674C24.2476 11.7319 24.1907 13.0642 24.2954 14.6651C24.286 14.6561 24.1178 14.5263 23.7882 14.2758C23.4598 14.0162 23.0189 13.6918 22.4653 13.3025C21.9196 12.9131 21.3105 12.5147 20.6351 12.108C19.9597 11.7015 19.2724 11.3425 18.5719 11.0313C17.8793 10.711 17.2224 10.4989 16.5986 10.3946C15.8291 10.2648 15.0068 10.0224 14.1328 9.66862C13.2589 9.30472 12.4032 8.85438 11.5638 8.31813C10.7334 7.78162 9.984 7.18048 9.31776 6.51445C8.66087 5.84816 8.15909 5.14761 7.81335 4.41254C7.81335 4.42058 7.89018 4.59008 8.04644 4.91842C8.21069 5.25611 8.45706 5.68801 8.7867 6.21622C9.1151 6.75273 9.53891 7.32739 10.058 7.94203C10.568 8.56549 11.1744 9.16663 11.8749 9.74571C12.5754 10.3256 13.3807 10.8276 14.2892 11.2514L5.48926 11.9782C5.5066 11.9782 5.762 11.9782 6.256 11.9782C6.75778 11.9691 7.41467 11.9691 8.22782 11.9782C9.04107 11.9782 9.92825 11.9914 10.8883 12.0169C11.8578 12.034 12.8099 12.0644 13.7435 12.108C14.6785 12.1516 15.5179 12.2115 16.261 12.2896C17.0054 12.3675 17.5681 12.4669 17.9481 12.5887C18.5108 12.7701 19.1691 13.0722 19.9213 13.4971C20.6735 13.921 21.4402 14.4533 22.2189 15.0929C22.9976 15.7418 23.702 16.4901 24.3338 17.3378C24.9656 18.1863 25.4411 19.1293 25.7614 20.1675Z" fill="white"/>
<path fill-rule="evenodd" clip-rule="evenodd" d="M16.2489 21.0243C16.2316 21.0243 16.0927 20.8164 15.8331 20.4009C15.5736 19.9941 15.2663 19.3665 14.9114 18.5191C14.5486 17.6623 14.22 16.5853 13.9249 15.2875C13.9169 15.2875 13.8773 15.4173 13.8083 15.6769C13.7395 15.9274 13.6826 16.2822 13.6402 16.7416C13.5885 17.1906 13.5965 17.7191 13.6653 18.3244C13.7354 18.9307 13.9036 19.5877 14.1725 20.2973C14.1631 20.2973 13.9726 20.2711 13.6004 20.2192C13.2284 20.1675 12.7355 20.0764 12.1211 19.9466C11.4988 19.8259 10.8195 19.6565 10.0844 19.4405C9.33999 19.2329 8.59194 18.9691 7.83839 18.6488C7.08629 18.3374 6.38963 17.9613 5.74872 17.5203C5.09983 17.0873 4.56877 16.5895 4.15295 16.0278C4.14382 16.0359 4.18337 16.1576 4.26944 16.3907C4.34762 16.624 4.51187 16.9272 4.76344 17.2991C5.01365 17.6794 5.395 18.0778 5.90498 18.4936C6.41496 18.9175 7.09428 19.3149 7.94304 19.6871C7.9337 19.6871 7.7655 19.7133 7.43586 19.765C7.10747 19.8169 6.67951 19.8947 6.15125 19.9983C5.62414 20.1107 5.04812 20.2628 4.4258 20.4525C3.80203 20.635 3.19289 20.8551 2.5956 21.1147C1.9983 21.3742 1.47118 21.6813 1.01178 22.0361C0.553591 22.3818 0.215962 22.7805 0 23.2306C0 23.2215 0.203795 23.0956 0.610471 22.8535C1.01695 22.6201 1.63938 22.3476 2.4791 22.0361C3.31852 21.7158 4.38209 21.4259 5.6719 21.1663C6.96035 20.9068 8.48344 20.7515 10.2393 20.6999C11.9955 20.6391 13.9991 20.7476 16.2489 21.0243Z" fill="white"/>
<path fill-rule="evenodd" clip-rule="evenodd" d="M36.3896 25.0597C36.3896 25.0517 36.4849 24.947 36.6757 24.7485C36.8742 24.5577 37.1644 24.3337 37.5444 24.0742C37.9166 23.8226 38.3841 23.5976 38.9468 23.3988C39.5085 23.2002 40.1574 23.0917 40.8935 23.0743C41.6286 23.0572 42.4467 23.1911 43.3461 23.4769C43.337 23.4769 43.2072 23.4637 42.9568 23.4375C42.7063 23.412 42.3818 23.3988 41.9834 23.3988C41.585 23.3988 41.1611 23.4333 40.7121 23.5023C40.2618 23.5631 39.8379 23.6757 39.4395 23.84C39.0421 24.0134 38.7176 24.2556 38.4661 24.5668C38.4835 24.5668 38.7389 24.6146 39.2316 24.7098C39.7255 24.8051 40.3703 24.9774 41.1663 25.2289C41.9702 25.4794 42.8402 25.8262 43.7739 26.2672C44.7088 26.7175 45.6263 27.2922 46.5257 27.993C46.5166 27.9756 46.2752 27.8326 45.7987 27.565C45.3232 27.2963 44.6397 26.981 43.7487 26.6171C42.8574 26.2539 41.7929 25.9204 40.5558 25.6183C39.3097 25.3242 37.9218 25.1378 36.3896 25.0597Z" fill="white"/>
<path fill-rule="evenodd" clip-rule="evenodd" d="M10.5771 9.53674e-06L11.2909 1.43979L12.8867 1.67391L11.7319 2.80247L12.0047 4.38605L10.5771 3.63384L9.14956 4.38605L9.42241 2.80247L8.26758 1.67391L9.86335 1.43979L10.5771 9.53674e-06Z" fill="white"/>
<path fill-rule="evenodd" clip-rule="evenodd" d="M7.67034 12.7955L8.35755 14.1976L9.90172 14.4177L8.78665 15.5087L9.04621 17.0528L7.67034 16.3258L6.28107 17.0528L6.54063 15.5087L5.42432 14.4177L6.96973 14.1976L7.67034 12.7955Z" fill="white"/>
<path fill-rule="evenodd" clip-rule="evenodd" d="M44.0468 17.3773L44.6057 18.5058L45.8505 18.6883L44.9421 19.5573L45.15 20.8032L44.0468 20.2192L42.9305 20.8032L43.1384 19.5573L42.2432 18.6883L43.4893 18.5058L44.0468 17.3773Z" fill="white"/>
<path fill-rule="evenodd" clip-rule="evenodd" d="M47.0837 9.6037L47.538 10.5244L48.551 10.6804L47.824 11.3941L47.9922 12.4194L47.0837 11.9265L46.1753 12.4194L46.3448 11.3941L45.6045 10.6804L46.6295 10.5244L47.0837 9.6037Z" fill="white"/>
<path fill-rule="evenodd" clip-rule="evenodd" d="M35.8061 6.65719L36.1571 7.38421L36.9609 7.48778L36.3769 8.05855L36.5199 8.85046L35.8061 8.4741L35.0924 8.85046L35.2221 8.05855L34.6514 7.48778L35.4565 7.38421L35.8061 6.65719Z" fill="white"/>
<path fill-rule="evenodd" clip-rule="evenodd" d="M42.8657 3.8285L43.3332 4.76239L44.3582 4.91839L43.6192 5.64542L43.7874 6.68365L42.8657 6.18997L41.9321 6.68365L42.1135 5.64542L41.3613 4.91839L42.3996 4.76239L42.8657 3.8285Z" fill="white"/>
<path fill-rule="evenodd" clip-rule="evenodd" d="M43.8138 26.9677L44.2932 27.9411L45.3844 28.1095L44.5924 28.8628L44.7739 29.9527L43.8138 29.4335L42.8404 29.9527L43.0218 28.8628L42.2432 28.1095L43.3198 27.9411L43.8138 26.9677Z" fill="white"/>
<path fill-rule="evenodd" clip-rule="evenodd" d="M32.7695 20.7902L33.3919 22.0493L34.781 22.2572L33.7693 23.2428L34.0024 24.6317L32.7695 23.9698L31.5101 24.6317L31.7577 23.2428L30.7446 22.2572L32.1338 22.0493L32.7695 20.7902Z" fill="white"/>
<path fill-rule="evenodd" clip-rule="evenodd" d="M38.2334 17.0528L38.636 17.8702L39.5312 17.9999L38.8823 18.6356L39.0373 19.5319L38.2334 19.116L37.415 19.5319L37.5713 18.6356L36.9224 17.9999L37.8308 17.8702L38.2334 17.0528Z" fill="white"/>
<path fill-rule="evenodd" clip-rule="evenodd" d="M46.4745 22.5422L46.9419 23.4902L47.9802 23.6321L47.2267 24.3721L47.3962 25.3974L46.4745 24.9177L45.5395 25.3974L45.721 24.3721L44.9688 23.6321L46.007 23.4902L46.4745 22.5422Z" fill="white"/>
<path fill-rule="evenodd" clip-rule="evenodd" d="M39.3233 9.16168L39.661 9.85004L40.4132 9.9536L39.8689 10.4857L39.9987 11.2382L39.3233 10.875L38.6479 11.2382L38.7777 10.4857L38.2334 9.9536L38.9856 9.85004L39.3233 9.16168Z" fill="white"/>
<path fill-rule="evenodd" clip-rule="evenodd" d="M34.3398 10.7068L34.7291 11.4723L35.5727 11.6021L34.9622 12.1993L35.1052 13.0429L34.3398 12.6403L33.5863 13.0429L33.7293 12.1993L33.1201 11.6021L33.9637 11.4723L34.3398 10.7068Z" fill="white"/>
<path fill-rule="evenodd" clip-rule="evenodd" d="M29.1357 8.81179L29.7065 9.97981L31.0043 10.1745L30.0706 11.0829L30.2905 12.3807L29.1357 11.7705L27.9677 12.3807L28.1888 11.0829L27.2539 10.1745L28.5517 9.97981L29.1357 8.81179Z" fill="white"/>
<path fill-rule="evenodd" clip-rule="evenodd" d="M28.6429 13.7689L28.9793 14.4572L29.7328 14.5608L29.1872 15.0929L29.317 15.8453L28.6429 15.4822L27.9676 15.8453L28.0974 15.0929L27.5518 14.5608L28.3053 14.4572L28.6429 13.7689Z" fill="white"/>
<path fill-rule="evenodd" clip-rule="evenodd" d="M31.5633 3.02334L31.9129 3.75036L32.7181 3.8669L32.1473 4.4247L32.2771 5.21661L31.5633 4.84025L30.8495 5.21661L30.9912 4.4247L30.4072 3.8669L31.2124 3.75036L31.5633 3.02334Z" fill="white"/>
<path fill-rule="evenodd" clip-rule="evenodd" d="M24.3986 4.13971L24.8528 5.06141L25.8778 5.21662L25.1389 5.93041L25.3071 6.95541L24.3986 6.47575L23.4902 6.95541L23.6583 5.93041L22.9194 5.21662L23.9444 5.06141L24.3986 4.13971Z" fill="white"/>
<path fill-rule="evenodd" clip-rule="evenodd" d="M16.4038 6.02153L16.8064 6.83888L17.7016 6.96866L17.0527 7.60432L17.209 8.50058L16.4038 8.08476L15.5868 8.50058L15.7417 7.60432L15.0928 6.96866L16.0012 6.83888L16.4038 6.02153Z" fill="white"/>
<path fill-rule="evenodd" clip-rule="evenodd" d="M16.5203 2.37446L16.8845 3.11473L17.7015 3.23127L17.1043 3.81528L17.2473 4.63263L16.5203 4.24329L15.7814 4.63263L15.9243 3.81528L15.3271 3.23127L16.1441 3.11473L16.5203 2.37446Z" fill="white"/>
<path fill-rule="evenodd" clip-rule="evenodd" d="M2.20633 23.0094L2.71216 24.0347L3.85505 24.2039L3.02342 24.9948L3.21809 26.1241L2.20633 25.592L1.19455 26.1241L1.38922 24.9948L0.570801 24.2039L1.70049 24.0347L2.20633 23.0094Z" fill="white"/>
<path fill-rule="evenodd" clip-rule="evenodd" d="M2.45281 16.7151L2.9468 17.7404L4.07505 17.9096L3.25806 18.7005L3.45273 19.8169L2.45281 19.2845L1.44114 19.8169L1.63581 18.7005L0.817383 17.9096L1.94697 17.7404L2.45281 16.7151Z" fill="white"/>
<path fill-rule="evenodd" clip-rule="evenodd" d="M7.30578 23.3988L7.73489 24.2688L8.69494 24.4108L8.00763 25.0859L8.16254 26.0463L7.30578 25.5921L6.45027 26.0463L6.61847 25.0859L5.91797 24.4108L6.87803 24.2688L7.30578 23.3988Z" fill="white"/>
<path fill-rule="evenodd" clip-rule="evenodd" d="M19.9214 15.3524L20.3241 16.1698L21.2192 16.2996L20.5703 16.9363L20.7266 17.8315L19.9214 17.4159L19.1043 17.8315L19.2593 16.9363L18.6104 16.2996L19.5056 16.1698L19.9214 15.3524Z" fill="white"/>
<path fill-rule="evenodd" clip-rule="evenodd" d="M20.1542 18.8048L20.5052 19.5186L21.2971 19.6351L20.7263 20.1929L20.8561 20.9716L20.1542 20.5955L19.4536 20.9716L19.5834 20.1929L19.0127 19.6351L19.8047 19.5186L20.1542 18.8048Z" fill="white"/>
</svg>
